<svg width="256" height="256" viewBox="0 0 256 256" fill="none" xmlns="http://www.w3.org/2000/svg">
<circle cx="128" cy="128" r="120.5" fill="#DDD0C8" stroke="#323232" stroke-width="15"/>
<circle cx="127" cy="46" r="20" fill="#323232"/>
<path d="M85 58L127.5 99L170 58" stroke="#323232" stroke-width="15"/>
<path d="M249 139.116L223.71 124.437C202.783 112.29 176.38 115.218 158.623 131.655V131.655C141.341 147.651 114.659 147.651 97.3771 131.655V131.655C79.6198 115.218 53.2168 112.29 32.2898 124.437L7 139.116" stroke="#323232" stroke-width="15"/>
<path d="M237 176.354L214.163 163.216C195.312 152.371 171.608 154.993 155.583 169.695V169.695C139.98 184.009 116.02 184.009 100.417 169.695V169.695C84.392 154.993 60.6876 152.371 41.8371 163.216L19 176.354" stroke="#323232" stroke-width="15"/>
<path d="M213 213.083L195.316 202.646C180.614 193.969 161.948 196.049 149.516 207.749V207.749C137.428 219.127 118.572 219.127 106.484 207.749V207.749C94.0522 196.049 75.3858 193.969 60.6838 202.646L43 213.083" stroke="#323232" stroke-width="15"/>
</svg>
